<svg width="210" height="24" viewBox="0 0 210 24" fill="none" xmlns="http://www.w3.org/2000/svg">
<path d="M0.5 23.456L8.77932 0.415999H13.0153L5.40983 23.456H0.5ZM17.4437 23.456L9.87039 0.415999H14.2989L22.5782 23.456H17.4437ZM4.86429 14.528H17.8288V18.368H4.86429V14.528ZM25.2842 23.456V0.415999H30.0978V23.456H25.2842ZM41.6353 23.776C39.8169 23.776 38.2338 23.424 36.886 22.72C35.5382 21.9947 34.4899 20.992 33.7411 19.712C33.0137 18.432 32.65 16.96 32.65 15.296C32.65 13.6107 33.0137 12.1387 33.7411 10.88C34.4899 9.6 35.5275 8.608 36.8539 7.904C38.1803 7.17867 39.7206 6.816 41.4749 6.816C43.165 6.816 44.6304 7.15733 45.8713 7.84C47.1121 8.52267 48.0748 9.472 48.7594 10.688C49.444 11.904 49.7863 13.3333 49.7863 14.976C49.7863 15.3173 49.7756 15.6373 49.7542 15.936C49.7328 16.2133 49.7007 16.48 49.6579 16.736H35.474V13.568H45.775L44.9406 14.144C44.9406 12.8213 44.6197 11.8507 43.9779 11.232C43.3575 10.592 42.5018 10.272 41.4107 10.272C40.1485 10.272 39.1644 10.6987 38.4584 11.552C37.7738 12.4053 37.4315 13.6853 37.4315 15.392C37.4315 17.056 37.7738 18.2933 38.4584 19.104C39.1644 19.9147 40.2127 20.32 41.6032 20.32C42.3734 20.32 43.0366 20.192 43.5929 19.936C44.1491 19.68 44.5663 19.264 44.8444 18.688H49.3691C48.8343 20.2667 47.9144 21.5147 46.6093 22.432C45.3257 23.328 43.6677 23.776 41.6353 23.776ZM52.3605 23.456V7.136H57.0778V10.976H57.174V23.456H52.3605ZM57.174 14.944L56.7569 11.072C57.1419 9.68533 57.7731 8.62933 58.6502 7.904C59.5273 7.17867 60.6184 6.816 61.9234 6.816C62.3299 6.816 62.6294 6.85867 62.822 6.944V11.424C62.715 11.3813 62.5652 11.36 62.3727 11.36C62.1801 11.3387 61.9448 11.328 61.6667 11.328C60.1264 11.328 58.9925 11.6053 58.2651 12.16C57.5377 12.6933 57.174 13.6213 57.174 14.944ZM73.3198 23.808C71.2232 23.808 69.6615 23.3067 68.6346 22.304C67.6291 21.28 67.1263 19.7333 67.1263 17.664V3.488L71.9399 1.696V17.824C71.9399 18.5493 72.1431 19.0933 72.5496 19.456C72.9561 19.8187 73.5872 20 74.443 20C74.7639 20 75.0634 19.968 75.3415 19.904C75.6196 19.84 75.8977 19.7653 76.1758 19.68V23.328C75.8977 23.4773 75.5019 23.5947 74.9885 23.68C74.4964 23.7653 73.9402 23.808 73.3198 23.808ZM64.0778 10.784V7.136H76.1758V10.784H64.0778ZM89.0484 23.456C88.92 22.9867 88.8237 22.4853 88.7595 21.952C88.7168 21.4187 88.6954 20.8 88.6954 20.096H88.567V12.384C88.567 11.7227 88.3424 11.2107 87.8931 10.848C87.4652 10.464 86.8234 10.272 85.9677 10.272C85.1547 10.272 84.5022 10.4107 84.0102 10.688C83.5395 10.9653 83.2293 11.3707 83.0795 11.904H78.4906C78.7046 10.432 79.464 9.216 80.769 8.256C82.074 7.296 83.8604 6.816 86.1281 6.816C88.4814 6.816 90.2785 7.33867 91.5193 8.384C92.7601 9.42933 93.3806 10.9333 93.3806 12.896V20.096C93.3806 20.6293 93.4126 21.1733 93.4768 21.728C93.5624 22.2613 93.6908 22.8373 93.8619 23.456H89.0484ZM83.3363 23.776C81.7103 23.776 80.416 23.3707 79.4533 22.56C78.4906 21.728 78.0093 20.6293 78.0093 19.264C78.0093 17.7493 78.5762 16.5333 79.71 15.616C80.8653 14.6773 82.4698 14.0693 84.5236 13.792L89.3051 13.12V15.904L85.3259 16.512C84.4701 16.64 83.839 16.8747 83.4325 17.216C83.0261 17.5573 82.8228 18.0267 82.8228 18.624C82.8228 19.1573 83.0154 19.5627 83.4004 19.84C83.7855 20.1173 84.299 20.256 84.9408 20.256C85.9463 20.256 86.802 19.9893 87.508 19.456C88.214 18.9013 88.567 18.2613 88.567 17.536L89.0163 20.096C88.5456 21.312 87.8289 22.2293 86.8662 22.848C85.9035 23.4667 84.7268 23.776 83.3363 23.776ZM106.143 23.456V20.832H113.043C114.348 20.832 115.364 20.48 116.091 19.776C116.84 19.072 117.215 18.112 117.215 16.896C117.215 15.616 116.819 14.592 116.027 13.824C115.257 13.056 114.198 12.672 112.85 12.672H106.143V10.112H112.529C113.834 10.112 114.84 9.80267 115.546 9.184C116.273 8.544 116.637 7.63733 116.637 6.464C116.637 5.35467 116.295 4.512 115.61 3.936C114.947 3.33867 113.963 3.04 112.658 3.04H106.143V0.415999H113.171C115.268 0.415999 116.937 0.928 118.177 1.952C119.418 2.95467 120.039 4.33067 120.039 6.08C120.039 7.18933 119.782 8.17067 119.268 9.024C118.776 9.856 118.092 10.5067 117.215 10.976C116.337 11.424 115.343 11.648 114.23 11.648L114.391 10.976C115.589 10.976 116.658 11.2533 117.6 11.808C118.541 12.3413 119.29 13.0773 119.846 14.016C120.402 14.9547 120.68 16.0427 120.68 17.28C120.68 18.496 120.381 19.5733 119.782 20.512C119.204 21.4507 118.381 22.176 117.311 22.688C116.241 23.2 115 23.456 113.588 23.456H106.143ZM103.64 23.456V0.415999H107.042V23.456H103.64ZM124.135 23.456V7.136H127.312V11.2H127.472V23.456H124.135ZM127.472 14.944L127.055 11.072C127.44 9.68533 128.103 8.62933 129.045 7.904C129.986 7.17867 131.109 6.816 132.414 6.816C132.906 6.816 133.249 6.85867 133.441 6.944V10.08C133.334 10.0373 133.184 10.016 132.992 10.016C132.799 9.99467 132.564 9.984 132.286 9.984C130.681 9.984 129.473 10.4 128.66 11.232C127.868 12.064 127.472 13.3013 127.472 14.944ZM146.059 23.456C145.952 23.0507 145.877 22.6027 145.834 22.112C145.813 21.6213 145.802 21.024 145.802 20.32H145.642V12.544C145.642 11.4987 145.374 10.72 144.839 10.208C144.326 9.67467 143.502 9.408 142.368 9.408C141.277 9.408 140.4 9.62133 139.737 10.048C139.095 10.4747 138.721 11.0827 138.614 11.872H135.437C135.587 10.336 136.282 9.10933 137.523 8.192C138.764 7.27467 140.422 6.816 142.497 6.816C144.636 6.816 146.241 7.31733 147.31 8.32C148.38 9.30133 148.915 10.752 148.915 12.672V20.32C148.915 20.8107 148.947 21.312 149.011 21.824C149.075 22.336 149.172 22.88 149.3 23.456H146.059ZM140.411 23.776C138.742 23.776 137.416 23.3707 136.432 22.56C135.448 21.728 134.956 20.608 134.956 19.2C134.956 17.7493 135.469 16.608 136.496 15.776C137.544 14.9227 139.042 14.3467 140.989 14.048L146.38 13.184V15.52L141.502 16.288C140.411 16.4587 139.587 16.7467 139.031 17.152C138.496 17.5573 138.229 18.144 138.229 18.912C138.229 19.6587 138.475 20.224 138.967 20.608C139.48 20.9707 140.218 21.152 141.181 21.152C142.465 21.152 143.524 20.8427 144.358 20.224C145.214 19.6053 145.642 18.8267 145.642 17.888L146.059 20.256C145.674 21.3867 144.989 22.2613 144.005 22.88C143.021 23.4773 141.823 23.776 140.411 23.776ZM159.153 23.776C157.013 23.776 155.313 23.3067 154.05 22.368C152.788 21.4293 152.071 20.1067 151.9 18.4H154.981C155.131 19.3387 155.559 20.064 156.265 20.576C156.992 21.0667 157.976 21.312 159.217 21.312C160.308 21.312 161.142 21.12 161.72 20.736C162.298 20.352 162.586 19.808 162.586 19.104C162.586 18.592 162.415 18.1653 162.073 17.824C161.752 17.4613 161.11 17.1627 160.148 16.928L157.516 16.32C155.869 15.9147 154.639 15.3173 153.826 14.528C153.034 13.7173 152.638 12.7253 152.638 11.552C152.638 10.08 153.184 8.928 154.275 8.096C155.387 7.24267 156.906 6.816 158.832 6.816C160.736 6.816 162.266 7.24267 163.421 8.096C164.597 8.94933 165.261 10.144 165.41 11.68H162.33C162.201 10.912 161.827 10.3253 161.207 9.92C160.608 9.49333 159.784 9.28 158.736 9.28C157.751 9.28 156.992 9.46133 156.457 9.824C155.944 10.1653 155.687 10.6453 155.687 11.264C155.687 11.776 155.88 12.2027 156.265 12.544C156.671 12.8853 157.334 13.1733 158.254 13.408L160.95 14.08C162.512 14.464 163.688 15.0933 164.48 15.968C165.271 16.8213 165.667 17.856 165.667 19.072C165.667 20.544 165.089 21.696 163.934 22.528C162.8 23.36 161.207 23.776 159.153 23.776ZM168.917 23.456V7.136H172.255V23.456H168.917ZM168.757 3.936V0.191999H172.447V3.936H168.757ZM176.94 23.456V0.415999H180.277V23.456H176.94Z" fill="url(#paint0_linear_2011_2)"/>
<path d="M197.551 22.176V1.824H202.343V22.176H197.551ZM190.277 14.3253V9.71733H209.574V14.3253H190.277Z" fill="#33DD00"/>
<defs>
<linearGradient id="paint0_linear_2011_2" x1="-19.6707" y1="11.9893" x2="202.02" y2="11.9893" gradientUnits="userSpaceOnUse">
<stop stop-color="#165C01"/>
<stop offset="1" stop-color="#33DD00"/>
</linearGradient>
</defs>
</svg>
